IKResults
version=1
nRows=5
nColumns=63
inDegrees=yes

Units are S.I. units (second, meters, Newtons, ...)
If the header above contains a line with 'inDegrees', this indicates whether rotational values are in degrees (yes) or radians (no).

endheader
time	pelvis_tilt	pelvis_list	pelvis_rotation	pelvis_tx	pelvis_ty	pelvis_tz	hip_flexion_r	hip_adduction_r	hip_rotation_r	knee_angle_r	knee_angle_r_beta	ankle_angle_r	subtalar_angle_r	mtp_angle_r	hip_flexion_l	hip_adduction_l	hip_rotation_l	knee_angle_l	knee_angle_l_beta	ankle_angle_l	subtalar_angle_l	mtp_angle_l	L5_S1_Flex_Ext	L5_S1_Lat_Bending	L5_S1_axial_rotation	L4_L5_Flex_Ext	L4_L5_Lat_Bending	L4_L5_axial_rotation	L3_L4_Flex_Ext	L3_L4_Lat_Bending	L3_L4_axial_rotation	L2_L3_Flex_Ext	L2_L3_Lat_Bending	L2_L3_axial_rotation	L1_L2_Flex_Ext	L1_L2_Lat_Bending	L1_L2_axial_rotation	L1_T12_Flex_Ext	L1_T12_Lat_Bending	L1_T12_axial_rotation	Abs_r3	Abs_r2	Abs_r1	Abs_t1	Abs_t2	neck_flexion	neck_bending	neck_rotation	arm_flex_r	arm_add_r	arm_rot_r	elbow_flex_r	pro_sup_r	wrist_flex_r	wrist_dev_r	arm_flex_l	arm_add_l	arm_rot_l	elbow_flex_l	pro_sup_l	wrist_flex_l	wrist_dev_l
      2.03333333	    181.48181164	     75.13726116	   -189.02161013	     -0.33187645	      0.32154128	      0.07240836	     -2.54297159	    -25.09246490	     16.98251573	     72.25067418	      1.26101215	      0.00000000	      0.00000000	      0.00000000	      3.00310446	     11.14479966	     39.77957636	     32.62406154	      0.56939729	     -7.85534105	      5.58745019	      0.00000000	     -4.49670630	     -4.30306549	     -6.11914119	     -8.35083328	     -5.72307710	     -6.50158752	     -7.38763879	    -10.46247342	     -6.50158752	     -5.13928563	    -10.46247342	     -5.35424854	     -4.17564147	     -8.77481114	     -4.97180222	     -2.56941798	     -6.66544844	     -4.58935589	    -32.11952345	    -48.67713739	    -34.03282757	      0.00000000	      0.00000000	     23.10523204	     33.68700936	    -44.73817931	     44.84250278	     19.67090811	     -6.00459255	    117.38337698	     89.99559364	      0.00000000	      0.00000000	     15.55503228	    -26.56316092	     33.38610895	     67.70909193	     89.99559364	      0.00000000	      0.00000000
      2.06666667	    184.03926611	     74.62791643	   -190.22315736	     -0.32974347	      0.32171396	      0.09783605	      2.04127062	    -22.63882444	     14.97857714	     72.59899306	      1.26709146	      0.00000000	      0.00000000	      0.00000000	      3.13657904	      8.81265722	     39.74767509	     31.76421284	      0.55439010	    -11.96443913	      8.04877215	      0.00000000	     -4.61489680	     -3.81270615	     -6.11810339	     -8.57032486	     -5.07089918	     -6.50048485	     -7.58181396	     -9.27021373	     -6.50048485	     -5.27436556	     -9.27021373	     -5.35334047	     -4.28539317	     -7.77487038	     -4.97095900	     -2.63695203	     -5.90588183	     -4.58857754	    -32.96374639	    -43.13009451	    -34.02705562	      0.00000000	      0.00000000	     23.51622812	     31.06444322	    -44.73851979	     47.14073290	     20.68431317	     -2.61737736	    116.21419945	     89.99559364	      0.00000000	      0.00000000	     18.53131240	    -23.27656896	     35.81420891	     62.77699205	     89.99559364	      0.00000000	      0.00000000
      2.10000000	    191.41133210	     73.49034406	   -195.94319681	     -0.32677577	      0.32299223	      0.11841152	      7.83393797	    -21.32423273	     12.23059596	     71.93341490	      1.25547493	      0.00000000	      0.00000000	      0.00000000	      4.89688627	      7.47460558	     39.68433262	     31.29157288	      0.54614097	    -15.42317485	      9.29159445	      0.00000000	     -4.38149512	     -3.38354680	     -6.08888785	     -8.13687458	     -4.50011724	     -6.46944334	     -7.19835833	     -8.22675569	     -6.46944334	     -5.00761077	     -8.22675569	     -5.32777687	     -4.06865636	     -6.89972863	     -4.94722138	     -2.50358631	     -5.24111399	     -4.56666589	    -31.29658146	    -38.27535811	    -33.86456754	      0.00000000	      0.00000000	     22.67097546	     28.73708077	    -44.73445634	     48.34975136	     21.40070742	     -0.01053184	    114.78150518	     89.99559364	      0.00000000	      0.00000000	     20.44967721	    -20.11021206	     38.30442290	     58.09108459	     89.99559364	      0.00000000	      0.00000000
      2.13333333	    193.25240501	     73.58610679	   -195.70263417	     -0.32506796	      0.32686498	      0.13998848	     10.75042541	    -20.24121155	      7.90843528	     69.58192575	      1.21443370	      0.00000000	      0.00000000	      0.00000000	      5.04699695	      6.17419887	     39.60496854	     31.56615170	      0.55093328	    -17.98722834	      8.20050748	      0.00000000	     -4.47303423	     -2.92016318	     -6.15489292	     -8.30687187	     -3.88381703	     -6.53957373	     -7.34874794	     -7.10008476	     -6.53957373	     -5.11223082	     -7.10008476	     -5.38553131	     -4.15365959	     -5.95479676	     -5.00085050	     -2.55589176	     -4.52333277	     -4.61616969	    -31.95043622	    -33.03346996	    -34.23166796	      0.00000000	      0.00000000	     22.91576357	     26.08931082	    -44.72729719	     50.79486661	     21.90170156	      1.88913119	    112.61231021	     89.99559364	      0.00000000	      0.00000000	     22.62033464	    -16.84643964	     39.53697669	     53.80583838	     89.99559364	      0.00000000	      0.00000000
      2.16666667	    194.34334462	     74.28453399	   -194.37623482	     -0.32443011	      0.33140276	      0.16025082	     12.35666409	    -19.45376546	      2.72552050	     66.18360202	      1.15512177	      0.00000000	      0.00000000	      0.00000000	      5.00474039	      5.02351282	     39.46577129	     32.32636496	      0.56420150	    -19.39022970	      6.37347526	      0.00000000	     -4.61710869	     -2.44536691	     -6.26038383	     -8.57443255	     -3.25233800	     -6.65165782	     -7.58544787	     -5.94566512	     -6.65165782	     -5.27689352	     -5.94566512	     -5.47783585	     -4.28744713	     -4.98659221	     -5.08656186	     -2.63821590	     -3.78787335	     -4.69528787	    -32.97954565	    -27.66247961	    -34.81837673	      0.00000000	      0.00000000	     23.29591781	     23.48309132	    -44.71634430	     53.64491494	     22.24259281	      3.10778169	    110.16113777	     89.99559364	      0.00000000	      0.00000000	     24.71283530	    -13.76765372	     40.38053935	     50.00914082	     89.99559364	      0.00000000	      0.00000000
